HIERARCHY
ROOT pelvis
{
  OFFSET 0 100 0
  CHANNELS 6 Xposition Yposition Zposition Zrotation Xrotation Yrotation
  JOINT pelvis_right_femur
  {
    OFFSET -10.78128 -3.44521 -0.5502486
    CHANNELS 3 Zrotation Xrotation Yrotation
    JOINT right_femur_tibia
    {
      OFFSET -0.8047443 -44.0398 -0.1307829
      CHANNELS 3 Zrotation Xrotation Yrotation
      JOINT right_tibia_foot
      {
        OFFSET 3.006224 -47.83518 -5
        CHANNELS 3 Zrotation Xrotation Yrotation
        End Site
        {
          OFFSET 0 -5 15
        }
      }
    }
  }
  JOINT pelvis_left_femur
  {
    OFFSET 10.78128 -3.44521 -0.5502486
    CHANNELS 3 Zrotation Xrotation Yrotation
    JOINT left_femur_tibia
    {
      OFFSET 0.8047443 -44.0398 -0.1307829
      CHANNELS 3 Zrotation Xrotation Yrotation
      JOINT left_tibia_foot
      {
        OFFSET -4.370144 -48.10324 -4.275266
        CHANNELS 3 Zrotation Xrotation Yrotation
        End Site
        {
          OFFSET 0 -5 15
        }
      }
    }
  }
  JOINT pelvis_spine1
  {
    OFFSET 0 6.468898 -3.129235
    CHANNELS 3 Zrotation Xrotation Yrotation
    JOINT spine1
    {
      OFFSET 0 23.15396 4.99043
      CHANNELS 3 Zrotation Xrotation Yrotation
      JOINT spine2
      {
        OFFSET 0 20.79997 -5.064912
        CHANNELS 3 Zrotation Xrotation Yrotation
        JOINT neck
        {
          OFFSET 0 14.38658 9.616178
          CHANNELS 3 Zrotation Xrotation Yrotation
          End Site
          {
            OFFSET 0 20 0
          }
        }
      }
      JOINT right_manubrium
      {
        OFFSET -5.722621 16.35077 3.967754
        CHANNELS 3 Zrotation Xrotation Yrotation
        JOINT right_clavicle
        {
          OFFSET -13.16364 1.694482 -4.693211
          CHANNELS 3 Zrotation Xrotation Yrotation
          JOINT right_humerus
          {
            OFFSET -28.5034 -0.3100689 -2.792744
            CHANNELS 3 Zrotation Xrotation Yrotation
            JOINT right_radius
            {
              OFFSET -25.15693 0.02248979 -1.271978
              CHANNELS 3 Zrotation Xrotation Yrotation
              End Site
              {
                OFFSET -15 0 0
              }
            }
          }
        }
      }
      JOINT left_manubrium
      {
        OFFSET 5.722621 16.35077 3.967754
        CHANNELS 3 Zrotation Xrotation Yrotation
        JOINT left_clavicle
        {
          OFFSET 13.16364 1.694482 -4.693211
          CHANNELS 3 Zrotation Xrotation Yrotation
          JOINT left_humerus
          {
            OFFSET 29.39168 -1.063119 -2.237045
            CHANNELS 3 Zrotation Xrotation Yrotation
            JOINT left_radius
            {
              OFFSET 24.59957 -0.9528479 0.9047498
              CHANNELS 3 Zrotation Xrotation Yrotation
              End Site
              {
                OFFSET 15 -0 -0
              }
            }
          }
        }
      }
    }
  }
}
MOTION
Frames: 13
Frame Time: 0.0416666666667
1037.534 97.87238 2926.883 3.794833 -3.340247 38.06275 2.449534 -23.78287 1.315435 -0 10.96552 -0 -1.470804 -0.9577717 -8.501482 -4.490816 19.40274 -7.167109 -0 27.9065 -0 -6.372236 -16.57437 11.81453 -3.88388 0.04824998 6.137514 3.618199 12.37819 -7.667089 2.548241 25.88271 1.477033 -2.847623 -28.48008 9.544469 -4.880967 -26.03201 12.45913 95.4248 32.95828 -16.92942 -0 0 14.3057 -10.19509 -1.124119 2.414718 -0.08054809 -15.04189 -3.323742 -86.82279 10.3086 23.24931 0 0 -5.03828 25.87544 10.41531 -21.37105
1041.584 98.04168 2933.159 3.850745 -4.576576 38.0381 4.261538 -20.6269 3.078182 -0 14.46066 -0 -1.896771 -1.145408 -8.801549 -3.617549 18.14705 -6.999573 -0 37.25351 -0 -7.199084 -13.08337 12.70365 -3.571385 -0.06119679 6.00333 3.647222 12.31149 -7.762921 2.449949 25.38432 1.916759 -2.423334 -28.48473 9.575447 -4.585033 -25.46303 12.44807 95.48712 33.05216 -17.49481 -0 0 13.47628 -10.05313 -0.4881062 2.638701 0.3149712 -15.92201 -3.348584 -86.51357 10.25955 22.32606 0 0 -7.57268 25.4789 10.31963 -20.49899
1045.518 98.89344 2939.339 4.193713 -5.94434 37.6085 5.63825 -16.3144 4.597441 -0 17.26548 -0 -2.312368 -1.834074 -8.907075 -2.900434 14.80598 -6.779746 -0 46.96291 -0 -7.767576 -9.799747 14.10927 -3.117619 -0.2183032 5.863979 3.647212 12.32509 -7.95884 2.360318 24.72265 2.278474 -2.02435 -28.37613 9.495113 -4.242589 -24.98512 12.45369 95.48039 32.72507 -17.99297 -0 0 12.97038 -10.12486 0.3966156 2.919118 0.7917865 -16.9636 -3.26554 -86.3385 10.05494 21.64922 0 0 -9.628149 24.89234 10.59429 -19.42999
1049.211 100.1503 2945.203 4.790691 -7.056966 36.83516 6.25512 -11.17543 5.536019 -0 18.24288 -0 -2.636897 -3.087083 -8.702647 -2.464476 9.452513 -6.482966 -0 55.01544 -0 -8.04729 -7.454461 15.71439 -2.614968 -0.3953782 5.754914 3.607718 12.41417 -8.193156 2.287136 24.02685 2.532571 -1.695307 -28.16249 9.332252 -3.894438 -24.64114 12.47547 95.40755 32.12682 -18.35784 -0 0 12.80521 -10.36455 1.378347 3.225792 1.267669 -17.9894 -3.106742 -86.31285 9.768712 21.30496 0 0 -11.02284 24.2021 11.12753 -18.29214
1052.618 101.4352 2950.643 5.482277 -7.708126 35.87045 6.163996 -5.678859 5.890523 -0 17.47686 -0 -2.865446 -4.909656 -8.164964 -2.19249 2.698389 -6.12733 -0 59.4175 -0 -8.017161 -6.337592 17.24762 -2.112081 -0.5831127 5.692568 3.525341 12.5596 -8.426567 2.226071 23.35327 2.685722 -1.446813 -27.85387 9.110359 -3.558889 -24.43717 12.50482 95.26172 31.37365 -18.55575 -0 0 12.96004 -10.72555 2.388344 3.561872 1.709871 -18.92191 -2.89161 -86.41722 9.443142 21.30144 0 0 -11.80388 23.45173 11.83227 -17.1307
1055.79 102.4054 2955.684 6.011659 -7.884481 34.86818 5.676859 -0.307561 5.841847 -0 15.81903 -0 -3.02533 -7.212284 -7.341548 -1.822053 -4.525271 -5.698253 -0 58.90453 -0 -7.752533 -6.274585 18.54223 -1.631095 -0.7824754 5.682811 3.399307 12.73854 -8.636863 2.16869 22.71663 2.75569 -1.275712 -27.45621 8.844817 -3.241063 -24.3668 12.53001 95.0285 30.54111 -18.5677 -0 0 13.41464 -11.1749 3.407972 3.946864 2.113684 -19.7358 -2.626918 -86.62479 9.099403 21.62144 0 0 -12.08827 22.65472 12.6505 -15.94479
1058.859 102.8477 2960.444 6.112669 -7.657078 33.92416 5.131505 4.556287 5.550563 -0 14.15476 -0 -3.126635 -9.831222 -6.278928 -1.133297 -11.31556 -5.143297 -0 53.45935 -0 -7.408468 -6.791255 19.49735 -1.189023 -0.9975936 5.728535 3.230177 12.92649 -8.808335 2.10712 22.12166 2.756963 -1.180761 -26.97491 8.548028 -2.943206 -24.42782 12.53749 94.68598 29.68551 -18.37029 -0 0 14.16553 -11.68602 4.428811 4.402645 2.480638 -20.41189 -2.311358 -86.91287 8.750658 22.25312 0 0 -11.97267 21.82084 13.53918 -14.7306
1061.984 102.7095 2965.087 5.660271 -7.101828 33.07225 4.704344 8.711125 5.094772 -0 13.01005 -0 -3.131357 -12.51257 -5.001939 -0.1251462 -17.04108 -4.468277 -0 44.45301 -0 -7.074748 -7.347363 20.06051 -0.8069638 -1.231591 5.829412 3.023053 13.095 -8.928274 2.035614 21.57668 2.699853 -1.165581 -26.42405 8.235468 -2.670134 -24.62107 12.51229 94.21102 28.86071 -17.93831 -0 0 15.21142 -12.22699 5.430693 4.942699 2.810061 -20.92274 -1.941069 -87.25953 8.408248 23.18076 0 0 -11.52736 20.97538 14.45562 -13.50856
1065.303 102.0805 2969.77 4.787153 -6.310445 32.31124 4.35156 12.14823 4.546058 -0 12.63893 -0 -2.95565 -14.84063 -3.583192 0.9113231 -21.38308 -3.836943 -0 34.27869 -0 -6.699352 -7.570665 20.27212 -0.5061365 -1.483061 5.97729 2.791085 13.21428 -8.990449 1.951396 21.09375 2.595238 -1.232394 -25.83283 7.927228 -2.431753 -24.9388 12.44171 93.59776 28.117 -17.2685 -0 0 16.52013 -12.75888 6.378328 5.562826 3.098722 -21.24494 -1.518679 -87.63526 8.082479 24.35485 0 0 -10.83076 20.16115 15.35036 -12.32811
1068.912 101.15 2974.613 3.848805 -5.420768 31.6293 3.881317 14.95625 4.03618 -0 13.32147 -0 -2.530876 -16.2415 -2.210609 1.4987 -24.23779 -3.5515 -0 25.49651 -0 -6.186638 -7.414548 20.2668 -0.2969655 -1.742542 6.154079 2.554469 13.26502 -8.999444 1.856072 20.68367 2.457262 -1.373518 -25.24291 7.643429 -2.242991 -25.35576 12.32273 92.87952 27.48671 -16.40484 -0 0 18.0032 -13.24646 7.230776 6.236274 3.340718 -21.37984 -1.065009 -88.00046 7.781923 25.675 0 0 -9.99553 19.42287 16.17053 -11.24995
1072.855 100.1634 2979.683 3.236982 -4.599192 31.0279 3.108777 17.14938 3.71666 -0 15.53545 -0 -1.88619 -16.13115 -1.150239 1.237823 -25.5888 -3.874898 -0 19.86266 -0 -5.523387 -7.12765 20.17973 -0.172083 -1.991213 6.33552 2.335114 13.25087 -8.97025 1.756906 20.35234 2.301104 -1.568106 -24.69903 7.398007 -2.119445 -25.83138 12.16826 92.13411 26.97435 -15.44212 -0 0 19.5216 -13.66896 7.952811 6.915885 3.525927 -21.36133 -0.6238362 -88.31382 7.513406 27.00585 0 0 -9.154334 18.7898 16.8703 -10.3228
1077.124 99.38349 2984.992 3.179177 -3.991354 30.55784 2.002831 18.53975 3.657396 -0 19.83687 -0 -1.151874 -14.13941 -0.6221783 0.06088253 -25.43433 -4.821019 -0 17.80693 -0 -4.781003 -7.051141 20.04969 -0.1105007 -2.204034 6.49702 2.152753 13.1983 -8.924119 1.666592 20.10204 2.138495 -1.787461 -24.24323 7.197664 -2.070917 -26.31919 12.00558 91.46429 26.5626 -14.50399 -0 0 20.9181 -14.0175 8.516108 7.538727 3.640959 -21.24309 -0.2510786 -88.54523 7.281541 28.2101 0 0 -8.411477 18.27831 17.42196 -9.583372
1081.651 99.0483 2990.49 3.655025 -3.683819 30.339 0.7434449 18.74592 3.790024 -0 26.52607 -0 -0.4688363 -10.3127 -0.7018517 -1.715175 -23.80144 -6.105019 -0 18.56162 -0 -4.040312 -7.413924 19.8089 -0.08908143 -2.356245 6.616736 2.025363 13.14296 -8.884895 1.600992 19.93622 1.975572 -2.004415 -23.91619 7.046538 -2.097925 -26.77409 11.86704 90.96781 26.22759 -13.71362 -0 0 22.04963 -14.28215 8.891045 8.029547 3.674553 -21.07828 0.005772609 -88.68236 7.087508 29.17 0 0 -7.800559 17.91237 17.82152 -9.079974
